<svg width="25" height="25" viewBox="0 0 25 25" fill="none" xmlns="http://www.w3.org/2000/svg">
<circle cx="12.5" cy="12.5" r="12.5" fill="#007BFF"/>
<path d="M12.668 5.665C12.668 6.313 12.461 6.826 12.047 7.204C11.633 7.582 11.138 7.771 10.562 7.771C9.986 7.771 9.491 7.582 9.077 7.204C8.681 6.826 8.483 6.313 8.483 5.665C8.483 4.999 8.681 4.477 9.077 4.099C9.491 3.721 9.986 3.532 10.562 3.532C11.138 3.532 11.633 3.721 12.047 4.099C12.461 4.477 12.668 4.999 12.668 5.665ZM17.609 21.46C16.925 21.784 16.277 22 15.665 22.108C15.071 22.234 14.522 22.297 14.018 22.297C13.154 22.297 12.425 22.171 11.831 21.919C11.255 21.667 10.787 21.307 10.427 20.839C10.085 20.353 9.842 19.768 9.698 19.084C9.554 18.4 9.482 17.617 9.482 16.735V12.064H5.972V9.31H12.803V17.167C12.803 17.923 12.938 18.49 13.208 18.868C13.496 19.228 13.964 19.408 14.612 19.408C14.918 19.408 15.287 19.372 15.719 19.3C16.151 19.21 16.637 19.039 17.177 18.787L17.609 21.46Z" fill="white"/>
</svg>
